<?xml version="1.0" encoding="UTF-8"?>
<!DOCTYPE svg PUBLIC "-//W3C//DTD SVG 1.1//EN" "http://www.w3.org/Graphics/SVG/1.1/DTD/svg11.dtd">
<!-- Creator: CorelDRAW X6 -->
<svg xmlns="http://www.w3.org/2000/svg" xml:space="preserve" width="40mm" height="200mm" version="1.1" style="shape-rendering:geometricPrecision; text-rendering:geometricPrecision; image-rendering:optimizeQuality; fill-rule:evenodd; clip-rule:evenodd"
viewBox="0 0 4000 20000"
 xmlns:xlink="http://www.w3.org/1999/xlink">
 <defs>
  <style type="text/css">
   <![CDATA[
    .fil4 {fill:#2A566B}
    .fil10 {fill:#434242}
    .fil3 {fill:#457A93}
    .fil1 {fill:#467828}
    .fil9 {fill:#5B5B5B}
    .fil8 {fill:#5D5071}
    .fil0 {fill:#65A33E}
    .fil6 {fill:#70552B}
    .fil7 {fill:#7A6492}
    .fil5 {fill:#A77D3B}
    .fil2 {fill:white;fill-rule:nonzero}
   ]]>
  </style>
 </defs>
 <g id="Слой_x0020_1">
  <metadata id="CorelCorpID_0Corel-Layer"/>
  <g id="_674035184">
   <path class="fil0" d="M2000 3c1105,0 2000,895 2000,2000 0,1105 -895,2000 -2000,2000 -1105,0 -2000,-895 -2000,-2000 0,-1105 895,-2000 2000,-2000z"/>
   <path class="fil1" d="M1900 3085c0,0 374,388 779,800 543,-196 978,-621 1186,-1158l-1706 -1706 -642 1232 -4 380 386 388 0 64z"/>
   <path class="fil2" d="M2720 2228c-46,330 -233,525 -561,584l0 272 -259 0 0 -272c-143,-21 -261,-71 -353,-149 -92,-78 -161,-171 -206,-279 -45,-108 -67,-227 -67,-356 0,-225 57,-409 172,-552 115,-143 266,-223 454,-238l0 -217 259 0 0 217c324,46 513,239 567,581l-420 26c-25,-190 -113,-285 -264,-285 -194,0 -291,163 -291,488 0,129 24,232 73,310 49,78 121,117 218,117 157,0 245,-93 264,-279l413 32z"/>
   <path class="fil3" d="M2000 7997c1105,0 2000,895 2000,2000 0,1105 -895,2000 -2000,2000 -1105,0 -2000,-895 -2000,-2000 0,-1105 895,-2000 2000,-2000z"/>
   <path class="fil4" d="M1449 10748l1156 1156c600,-190 1078,-656 1284,-1249l-1353 -1353 -116 -89 -315 -312 -606 1112 585 585 -45 69 -145 -80 -234 -234 -211 396z"/>
   <path class="fil2" d="M2110 10925l0 262 -222 0 0 -262c-334,-35 -537,-197 -609,-484l381 -88c44,165 164,248 360,248 95,0 166,-18 213,-55 47,-36 71,-80 71,-131 0,-52 -21,-93 -63,-121 -42,-29 -124,-55 -245,-79 -264,-54 -435,-127 -511,-219 -76,-93 -115,-200 -115,-324 0,-144 48,-268 144,-371 96,-102 221,-163 374,-181l0 -219 222 0 0 219c287,27 475,162 564,407l-350 117c-47,-139 -148,-208 -302,-208 -163,0 -245,53 -245,158 0,43 15,78 46,107 30,29 100,55 207,76 180,37 312,73 395,110 84,37 155,97 212,179 57,83 85,175 85,277 0,141 -51,268 -152,381 -102,114 -255,180 -460,200z"/>
   <path class="fil5" d="M2000 11997c1105,0 2000,895 2000,2000 0,1105 -895,2000 -2000,2000 -1105,0 -2000,-895 -2000,-2000 0,-1105 895,-2000 2000,-2000z"/>
   <path class="fil6" d="M1310 15061l923 923c899,-104 1616,-804 1746,-1694l-1289 -1289 -347 346 -541 60 -302 606 163 734 -353 315z"/>
   <path class="fil2" d="M2690 13001l-175 321c161,197 242,433 242,709 0,256 -65,471 -195,648 -130,177 -324,265 -582,265 -121,0 -230,-24 -329,-73l-105 190 -234 0 180 -324c-164,-187 -247,-421 -247,-699 0,-254 64,-471 191,-650 128,-179 321,-269 580,-269 122,0 233,24 332,73l109 -190 234 0zm-973 1328l457 -823c-48,-34 -105,-51 -170,-51 -126,0 -211,59 -257,177 -45,118 -68,261 -68,431 0,103 12,192 37,266zm112 222c42,37 104,56 187,56 203,0 305,-189 305,-567 0,-118 -11,-223 -32,-316l-459 827z"/>
   <path class="fil7" d="M2000 4003c1105,0 2000,895 2000,2000 0,1105 -895,2000 -2000,2000 -1105,0 -2000,-895 -2000,-2000 0,-1105 895,-2000 2000,-2000z"/>
   <path class="fil8" d="M1014 6769l1220 1220c819,-95 1486,-685 1697,-1462l-1045 -1045 -274 100 -611 49 -521 -158 -82 -82 -125 472 -258 906z"/>
   <path class="fil2" d="M2986 6769l-408 0 0 -762c0,-107 -3,-177 -10,-209 -6,-33 -23,-59 -50,-81 -27,-21 -64,-32 -111,-32 -45,0 -90,16 -136,48 -47,32 -70,123 -70,274l0 762 -408 0 0 -762c0,-110 -5,-181 -15,-213 -10,-33 -29,-59 -57,-79 -28,-20 -63,-30 -106,-30 -70,0 -122,22 -156,66 -34,44 -51,129 -51,256l0 762 -394 0 0 -1378 383 0 0 211c65,-159 194,-238 388,-238 177,0 304,80 382,238 77,-159 211,-238 401,-238 91,0 170,19 235,56 66,37 113,86 141,146 28,60 42,163 42,310l0 894z"/>
   <path class="fil9" d="M2000 15997c1105,0 2000,895 2000,2000 0,1105 -895,2000 -2000,2000 -1105,0 -2000,-895 -2000,-2000 0,-1105 895,-2000 2000,-2000z"/>
   <path class="fil10" d="M1132 18510l1412 1412c680,-192 1213,-734 1391,-1419l0 0 -1099 -1099 -831 311 -386 -215 -452 234 -35 776z"/>
   <path class="fil2" d="M2456 17262c186,0 334,71 445,213 105,132 157,299 157,500 0,222 -48,399 -145,530 -111,152 -278,228 -500,228 -203,0 -352,-86 -449,-259 -44,56 -108,102 -191,138 -82,36 -166,53 -251,53 -188,0 -335,-71 -440,-213 -93,-127 -140,-288 -140,-483 0,-175 51,-328 151,-459 109,-145 249,-217 418,-217 87,0 174,22 262,65 91,43 160,100 208,171 101,-177 259,-266 474,-266zm-925 372c-76,0 -143,31 -198,94 -56,63 -84,139 -84,230 0,106 21,189 63,250 43,61 97,92 166,92 88,0 165,-64 232,-192 31,-57 72,-166 123,-323 -85,-101 -185,-151 -302,-151zm951 27c-101,0 -185,67 -251,200 -42,108 -84,216 -125,324 84,122 193,183 329,183 93,0 170,-31 227,-93 64,-68 96,-163 96,-286 0,-218 -92,-328 -276,-328z"/>
  </g>
 </g>
</svg>
