<?xml version="1.0" encoding="utf-8"?>
<!-- Generator: Adobe Illustrator 17.0.0, SVG Export Plug-In . SVG Version: 6.00 Build 0)  -->
<!DOCTYPE svg PUBLIC "-//W3C//DTD SVG 1.1//EN" "http://www.w3.org/Graphics/SVG/1.1/DTD/svg11.dtd">
<svg version="1.1" id="Layer_1" xmlns="http://www.w3.org/2000/svg" xmlns:xlink="http://www.w3.org/1999/xlink" x="0px" y="0px"
	 width="80px" height="40px" viewBox="0 0 80 40" enable-background="new 0 0 80 40" xml:space="preserve">
<g>
	<g>
		<path fill="#FFFFFF" d="M34.772,10.406H10.417c-2.257,0-4.102-1.837-4.102-4.102c0-2.257,1.837-4.102,4.102-4.102h24.364
			c0.61,0,1.095-0.494,1.095-1.095c0-0.61-0.494-1.095-1.095-1.095H10.417c-3.468,0-6.293,2.825-6.293,6.293v27.403
			c0,3.468,2.825,6.293,6.293,6.293h24.364c0.61,0,1.095-0.494,1.095-1.095V11.501C35.868,10.9,35.382,10.406,34.772,10.406z
			 M33.677,37.809h-23.26c-2.257,0-4.102-1.837-4.102-4.102V11.081c1.104,0.947,2.537,1.524,4.102,1.524h23.26V37.809L33.677,37.809
			z"/>
		<path fill="#FFFFFF" d="M10.763,5.307c-0.61,0-1.095,0.494-1.095,1.095s0.494,1.095,1.095,1.095h20.575
			c0.61,0,1.095-0.494,1.095-1.095s-0.494-1.095-1.095-1.095H10.763z"/>
	</g>
</g>
<g>
	<path fill="#FFFFFF" d="M79.741,18.697h-1.913V9.895c0-2.11-1.717-3.827-3.827-3.827h-2.592l-2.652-4.768
		c-0.404-0.729-1.173-1.181-2.008-1.181c-0.389,0-0.775,0.1-1.115,0.289l-10.178,5.66H44.086c-2.11,0-3.827,1.717-3.827,3.827
		v26.279c0,2.11,1.717,3.827,3.827,3.827H74c2.11,0,3.827-1.717,3.827-3.827v-7.718h1.913V18.697L79.741,18.697z M74,7.598
		c1.179,0,2.142,0.895,2.271,2.041h-2.876l-1.134-2.041H74z M66.378,1.745c0.359-0.201,0.842-0.061,1.04,0.297l4.225,7.597H52.183
		L66.378,1.745z M76.297,36.173c0,1.266-1.03,2.296-2.296,2.296H44.086c-1.266,0-2.296-1.03-2.296-2.296V9.895
		c0-1.266,1.03-2.296,2.296-2.296h8.617L49.032,9.64h-4.468c-0.423,0-0.765,0.343-0.765,0.765c0,0.423,0.342,0.765,0.765,0.765
		h1.714h27.967h2.05v7.527h-5.597c-2.599,0-4.715,2.116-4.715,4.715v0.329c0,2.599,2.116,4.715,4.715,4.715h5.597V36.173
		L76.297,36.173z M78.21,26.925h-0.383h-7.128c-1.756,0-3.184-1.428-3.184-3.184v-0.329c0-1.756,1.428-3.184,3.184-3.184h7.128
		h0.383V26.925z M73.044,23.639c0,0.934-0.756,1.69-1.69,1.69c-0.934,0-1.69-0.756-1.69-1.69s0.756-1.69,1.69-1.69
		C72.287,21.949,73.044,22.706,73.044,23.639z"/>
</g>
</svg>
