<?xml version="1.0" encoding="iso-8859-1"?>
<!-- Generator: Adobe Illustrator 16.0.0, SVG Export Plug-In . SVG Version: 6.00 Build 0)  -->
<!DOCTYPE svg PUBLIC "-//W3C//DTD SVG 1.1//EN" "http://www.w3.org/Graphics/SVG/1.1/DTD/svg11.dtd">
<svg xmlns="http://www.w3.org/2000/svg" xmlns:xlink="http://www.w3.org/1999/xlink" version="1.1" id="Capa_1" x="0px" y="0px" width="512px" height="512px" viewBox="0 0 118.375 118.374" style="enable-background:new 0 0 118.375 118.374;" xml:space="preserve">
<g>
	<g>
		<path d="M26.025,92.952h-8.799v25.422h8.225c4.232,0,7.516-1.146,9.852-3.442c2.336-2.293,3.504-5.562,3.504-9.808    c0-3.938-1.109-6.956-3.33-9.043C33.255,93.996,30.107,92.952,26.025,92.952z M30.214,110.924    c-0.973,1.209-2.502,1.814-4.59,1.814h-1.531v-14.24h2c1.881,0,3.279,0.562,4.201,1.686c0.92,1.125,1.381,2.854,1.381,5.182    C31.675,107.857,31.189,109.711,30.214,110.924z" fill="#FFFFFF"/>
		<polygon points="41.939,118.374 57.031,118.374 57.031,112.773 48.806,112.773 48.806,107.977 56.423,107.977 56.423,102.464     48.806,102.464 48.806,98.462 57.031,98.462 57.031,92.952 41.939,92.952   " fill="#FFFFFF"/>
		<path d="M65.605,92.85l-8.297,25.523h7.547l1.289-4.766h8.258l1.252,4.766h7.514L74.768,92.85H65.605z M67.568,107.977    c1.055-3.985,1.736-6.662,2.045-8.018c0.307-1.355,0.512-2.33,0.617-2.919c0.117,0.634,0.355,1.688,0.723,3.161    c0.363,1.473,0.674,2.671,0.93,3.602l1.095,4.174H67.568L67.568,107.977z" fill="#FFFFFF"/>
		<polygon points="91.359,112.826 91.359,92.952 84.492,92.952 84.492,118.374 101.148,118.374 101.148,112.826   " fill="#FFFFFF"/>
		<circle cx="38.037" cy="9.742" r="9.742" fill="#FFFFFF"/>
		<circle cx="70.235" cy="9.747" r="9.742" fill="#FFFFFF"/>
		<path d="M76.361,78.332l0.006,7.035c0,2.85,2.309,5.154,5.156,5.154h0.006c2.846-0.002,5.154-2.312,5.152-5.16l-0.004-7.029    H76.361z" fill="#FFFFFF"/>
		<path d="M21.611,52.909l-0.02,32.45c-0.004,2.851,2.307,5.16,5.154,5.162c0,0,0,0,0.004,0c2.846,0,5.154-2.309,5.154-5.155    l0.02-30.703c2.131-0.848,3.934-2.493,4.484-5.061l1.705-7.96c2.713,3.168,7.195,4.983,15.186,6.078    c0.172,0.022,0.346,0.036,0.518,0.036c1.594,0,3.006-1.013,3.543-2.498c6.256-0.329,10.135-1.617,12.66-4.272l1.846,8.62    c0.48,2.23,1.904,3.762,3.668,4.684h2.455c0.527-1.485,1.594-2.713,3-3.443c-1.279-6.104-3.057-12.105-4.582-15.751    c-1.041-1.913,0.41-2.574,1.186-0.587c0.777,1.987,3.673,11.044,4.857,16.965c-1.789,0.551-3.158,2.061-3.475,3.939h-7.283v21.519    h29.139V55.413h-7.283c-0.317-1.896-1.709-3.412-3.518-3.953c0.02-0.312,0.014-0.627-0.049-0.95    c-0.482-2.462-6.398-25.678-6.398-25.678c-0.84-3.916-3.551-5.798-6.924-5.896l-0.029,0.002c0,0-1.188,0.006-2.213,0.201    c-1.074,0.205-2.012,0.721-2.012,0.721c-2.486,1.207-4.863,3.697-5.156,6.723c-0.039,0.146-0.086,0.287-0.106,0.441    c-0.656,4.62-1.315,7.55-2.731,8.841c-1.459,1.326-4.738,1.921-10.636,1.921c-1.365,0-2.549,0.73-3.215,1.813    c-3.557-0.724-5.658-1.647-6.766-2.931c-1.439-1.664-1.965-4.756-2.66-9.645c-0.023-0.156-0.07-0.298-0.109-0.443    c-0.291-3.023-2.668-5.516-5.154-6.723c0,0-0.939-0.518-2.012-0.721c-1.027-0.197-2.215-0.201-2.215-0.201l-0.029-0.002    c-3.373,0.098-7.344,1.978-8.186,5.894l-4.502,21.027C18.324,48.665,19.58,51.177,21.611,52.909z M86.259,55.024    c0.238,0,0.484-0.023,0.729-0.071c0.818-0.163,1.519-0.583,2.046-1.155c0.887,0.155,1.608,0.783,1.907,1.615h-9.364    c0.299-0.832,1.02-1.46,1.907-1.611C84.189,54.559,85.187,55.024,86.259,55.024z" fill="#FFFFFF"/>
	</g>
</g>
<g>
</g>
<g>
</g>
<g>
</g>
<g>
</g>
<g>
</g>
<g>
</g>
<g>
</g>
<g>
</g>
<g>
</g>
<g>
</g>
<g>
</g>
<g>
</g>
<g>
</g>
<g>
</g>
<g>
</g>
</svg>
