<?xml version="1.0" encoding="utf-8"?>
<!-- Generator: Adobe Illustrator 17.0.0, SVG Export Plug-In . SVG Version: 6.00 Build 0)  -->
<!DOCTYPE svg PUBLIC "-//W3C//DTD SVG 1.1//EN" "http://www.w3.org/Graphics/SVG/1.1/DTD/svg11.dtd">
<svg version="1.1" id="Layer_1" xmlns="http://www.w3.org/2000/svg" xmlns:xlink="http://www.w3.org/1999/xlink" x="0px" y="0px"
	 width="344px" height="172px" viewBox="0 0 344 172" enable-background="new 0 0 344 172" xml:space="preserve">
<g>
	<path fill="#908F8F" d="M238.584,45.695c-0.109-10.891,8.882-16.115,9.284-16.374c-5.052-7.392-12.921-8.405-15.725-8.522
		c-6.697-0.678-13.068,3.943-16.466,3.943c-3.39,0-8.635-3.843-14.189-3.742c-7.3,0.109-14.03,4.244-17.789,10.782
		c-7.584,13.16-1.942,32.656,5.45,43.33c3.612,5.224,7.919,11.092,13.574,10.883c5.446-0.217,7.505-3.524,14.089-3.524
		s8.435,3.524,14.197,3.416c5.86-0.109,9.573-5.324,13.16-10.565c4.148-6.061,5.856-11.929,5.956-12.23
		C249.994,63.032,238.697,58.704,238.584,45.695z M227.755,13.733c3.001-3.641,5.027-8.693,4.475-13.733
		c-4.323,0.176-9.564,2.88-12.666,6.513c-2.783,3.223-5.22,8.367-4.567,13.306C219.824,20.196,224.75,17.366,227.755,13.733z"/>
</g>
<g>
	<g>
		<path fill="#908F8F" d="M58.948,106.329c-0.852,0-1.544,0.692-1.544,1.544v22.974l-5.75-5.944c-0.603-0.603-1.484-0.603-2.087,0
			s-0.555,1.581,0.048,2.184l8.587,8.565c0.29,0.29,0.695,0.452,1.104,0.452c0.41,0,0.808-0.163,1.098-0.452l8.567-8.565
			c0.603-0.603,0.605-1.581,0.002-2.184c-0.602-0.603-1.773-0.603-2.376,0l-6.104,5.913v-22.942
			C60.492,107.02,59.8,106.329,58.948,106.329z"/>
		<path fill="#908F8F" d="M63.774,118.479c-0.846-0.056-1.586,0.592-1.641,1.442c-0.054,0.852,0.591,1.585,1.443,1.64
			c6.619,0.425,11.611,5.507,11.611,12.017c0,6.719-5.469,11.837-12.45,11.837H20.976c-5.669,0-9.945-3.928-9.945-9.332
			c0-5.328,4.368-9.428,9.945-9.428c0.979,0,1.974,0.191,2.921,0.483l0.332,0.131c0.457,0.154,0.962,0.094,1.362-0.178
			c0.4-0.273,0.649-0.711,0.673-1.195c0.429-8.503,7.442-15.162,15.965-15.162c4.443,0,8.716,1.853,11.725,5.083
			c0.582,0.625,1.559,0.658,2.182,0.078c0.625-0.581,0.659-1.558,0.078-2.183c-3.59-3.854-8.688-6.065-13.985-6.065
			c-9.533,0-17.484,6.986-18.863,16.219c-0.796-0.151-1.595-0.228-2.39-0.228c-7.309,0-13.034,5.384-13.034,12.444
			c0,7.047,5.725,12.42,13.034,12.42h41.761c8.713,0,15.538-6.474,15.538-14.925C78.276,125.417,72.042,119.01,63.774,118.479z"/>
	</g>
</g>
<g>
	<g>
		<path fill="#908F8F" d="M144.947,106.329c-0.852,0-1.544,0.692-1.544,1.544v22.974l-5.75-5.944c-0.603-0.603-1.484-0.603-2.087,0
			c-0.603,0.603-0.555,1.581,0.048,2.184l8.587,8.565c0.29,0.29,0.695,0.452,1.104,0.452c0.41,0,0.808-0.163,1.098-0.452
			l8.567-8.565c0.603-0.603,0.605-1.581,0.002-2.184c-0.602-0.603-1.773-0.603-2.376,0l-6.104,5.913v-22.942
			C146.491,107.02,145.799,106.329,144.947,106.329z"/>
		<path fill="#908F8F" d="M149.773,118.479c-0.846-0.056-1.586,0.592-1.641,1.442c-0.054,0.852,0.591,1.585,1.443,1.64
			c6.619,0.425,11.611,5.507,11.611,12.017c0,6.719-5.469,11.837-12.45,11.837h-41.761c-5.669,0-9.945-3.928-9.945-9.332
			c0-5.328,4.368-9.428,9.945-9.428c0.979,0,1.974,0.191,2.921,0.483l0.332,0.131c0.457,0.154,0.962,0.094,1.362-0.178
			c0.4-0.273,0.649-0.711,0.673-1.195c0.429-8.503,7.442-15.162,15.965-15.162c4.443,0,8.716,1.853,11.725,5.083
			c0.582,0.625,1.559,0.658,2.182,0.078c0.625-0.581,0.659-1.558,0.078-2.183c-3.59-3.854-8.688-6.065-13.985-6.065
			c-9.533,0-17.484,6.986-18.863,16.219c-0.796-0.151-1.595-0.228-2.39-0.228c-7.309,0-13.034,5.384-13.034,12.444
			c0,7.047,5.725,12.42,13.034,12.42h41.761c8.713,0,15.538-6.474,15.538-14.925C164.275,125.417,158.04,119.01,149.773,118.479z"/>
	</g>
</g>
<g>
	<g>
		<path fill="#908F8F" d="M230.948,106.329c-0.852,0-1.544,0.692-1.544,1.544v22.974l-5.75-5.944c-0.603-0.603-1.484-0.603-2.087,0
			c-0.603,0.603-0.555,1.581,0.048,2.184l8.587,8.565c0.29,0.29,0.695,0.452,1.104,0.452c0.41,0,0.808-0.163,1.098-0.452
			l8.567-8.565c0.603-0.603,0.605-1.581,0.002-2.184c-0.602-0.603-1.773-0.603-2.376,0l-6.104,5.913v-22.942
			C232.492,107.02,231.8,106.329,230.948,106.329z"/>
		<path fill="#908F8F" d="M235.774,118.479c-0.846-0.056-1.586,0.592-1.641,1.442c-0.054,0.852,0.591,1.585,1.443,1.64
			c6.619,0.425,11.611,5.507,11.611,12.017c0,6.719-5.469,11.837-12.45,11.837h-41.761c-5.669,0-9.945-3.928-9.945-9.332
			c0-5.328,4.368-9.428,9.945-9.428c0.979,0,1.974,0.191,2.921,0.483l0.332,0.131c0.457,0.154,0.962,0.094,1.362-0.178
			c0.4-0.273,0.649-0.711,0.673-1.195c0.429-8.503,7.442-15.162,15.965-15.162c4.443,0,8.716,1.853,11.725,5.083
			c0.582,0.625,1.559,0.658,2.182,0.078c0.625-0.581,0.659-1.558,0.078-2.183c-3.59-3.854-8.688-6.065-13.985-6.065
			c-9.533,0-17.484,6.986-18.863,16.219c-0.796-0.151-1.595-0.228-2.39-0.228c-7.309,0-13.034,5.384-13.034,12.444
			c0,7.047,5.725,12.42,13.034,12.42h41.761c8.713,0,15.538-6.474,15.538-14.925C250.276,125.417,244.042,119.01,235.774,118.479z"
			/>
	</g>
</g>
<g>
	<g>
		<path fill="#908F8F" d="M98.049,27.857c-1.482,0-2.739,0.517-3.772,1.55c-1.033,1.033-1.55,2.274-1.55,3.721v22.223
			c0,1.484,0.517,2.74,1.55,3.773c1.033,1.033,2.291,1.55,3.772,1.55s2.73-0.517,3.748-1.55c1.015-1.033,1.525-2.29,1.525-3.773
			V33.128c0-1.448-0.517-2.688-1.55-3.721C100.737,28.373,99.496,27.857,98.049,27.857z"/>
		<path fill="#908F8F" d="M140.843,7.907l3.67-6.769c0.241-0.448,0.155-0.792-0.258-1.033c-0.448-0.208-0.793-0.103-1.033,0.309
			L139.5,7.237c-3.274-1.448-6.737-2.173-10.389-2.173c-3.652,0-7.116,0.725-10.388,2.173l-3.721-6.823
			c-0.242-0.412-0.586-0.517-1.033-0.309c-0.414,0.243-0.5,0.585-0.258,1.033l3.67,6.769c-3.721,1.898-6.685,4.54-8.89,7.934
			c-2.205,3.396-3.308,7.106-3.308,11.138h47.805c0-4.031-1.103-7.742-3.308-11.138C147.475,12.447,144.528,9.804,140.843,7.907z
			 M119.627,17.753c-0.397,0.398-0.871,0.596-1.422,0.596c-0.552,0-1.016-0.198-1.395-0.596c-0.379-0.396-0.568-0.868-0.568-1.421
			c0-0.551,0.189-1.024,0.568-1.421c0.379-0.396,0.844-0.594,1.395-0.594s1.025,0.198,1.422,0.594
			c0.396,0.398,0.595,0.87,0.595,1.421C120.221,16.884,120.022,17.357,119.627,17.753z M141.411,17.753
			c-0.38,0.398-0.845,0.596-1.395,0.596c-0.552,0-1.026-0.198-1.422-0.596c-0.397-0.396-0.595-0.868-0.595-1.421
			c0-0.551,0.198-1.024,0.595-1.421c0.396-0.396,0.87-0.594,1.422-0.594c0.551,0,1.015,0.198,1.395,0.594
			c0.379,0.398,0.568,0.87,0.568,1.421C141.979,16.884,141.79,17.357,141.411,17.753z"/>
		<path fill="#908F8F" d="M105.388,63.259c0,1.586,0.551,2.929,1.653,4.031c1.103,1.102,2.446,1.653,4.031,1.653h3.825l0.052,11.733
			c0,1.482,0.517,2.74,1.55,3.773s2.275,1.55,3.721,1.55c1.481,0,2.739-0.517,3.772-1.55c1.034-1.034,1.55-2.292,1.55-3.773V68.944
			h7.132v11.732c0,1.482,0.517,2.74,1.55,3.773s2.291,1.55,3.772,1.55s2.739-0.517,3.772-1.55c1.034-1.034,1.55-2.292,1.55-3.773
			V68.944h3.876c1.55,0,2.876-0.551,3.98-1.653c1.102-1.102,1.653-2.445,1.653-4.031V28.838h-47.442v34.421H105.388z"/>
		<path fill="#908F8F" d="M160.172,27.857c-1.448,0-2.688,0.509-3.721,1.525c-1.033,1.017-1.55,2.267-1.55,3.747v22.223
			c0,1.484,0.517,2.74,1.55,3.773c1.034,1.034,2.275,1.55,3.721,1.55c1.481,0,2.739-0.517,3.772-1.55s1.55-2.29,1.55-3.773V33.128
			c0-1.48-0.517-2.729-1.55-3.747C162.911,28.366,161.653,27.857,160.172,27.857z"/>
	</g>
</g>
<g>
	<g>
		<path fill="#908F8F" d="M31.486,10.082L4.228,15.521v25.161l27.258-0.459V10.082 M81.993,46.624l-44.27-0.758v31.292L81.993,86
			V46.624 M31.486,45.773L4.228,45.31v25.157l27.258,5.443V45.773 M81.993,0l-44.27,8.833v31.292l44.27-0.754V0"/>
	</g>
</g>
<g>
	<g>
		<path fill="#908F8E" d="M276.29,86.078l1.221-4.287c0.324-1.143,0.573-2.268,0.798-3.79h0.05c0.249,1.495,0.474,2.596,0.773,3.79
			l1.147,4.287h3.564l3.739-12.184h-3.712l-1.047,4.833c-0.274,1.398-0.523,2.767-0.698,4.162h-0.05
			c-0.249-1.398-0.573-2.763-0.897-4.138l-1.221-4.858h-2.991l-1.296,5.008c-0.299,1.194-0.648,2.594-0.897,3.988h-0.05
			c-0.199-1.398-0.449-2.744-0.698-4.015l-0.972-4.987h-3.865l3.539,12.188h3.564v0.003H276.29z"/>
		<path fill="#908F8E" d="M302.209,78.724c-0.278,1.398-0.522,2.767-0.694,4.164h-0.052c-0.247-1.398-0.573-2.765-0.895-4.139
			l-1.227-4.858h-2.991l-1.296,5.008c-0.299,1.196-0.648,2.594-0.897,3.99h-0.05c-0.199-1.398-0.449-2.746-0.698-4.017l-0.972-4.987
			h-3.863l3.539,12.188h3.564l1.221-4.285c0.324-1.148,0.573-2.27,0.798-3.792h0.05c0.249,1.495,0.475,2.596,0.775,3.792
			l1.147,4.285h3.564l3.733-12.188h-3.716L302.209,78.724z"/>
		<path fill="#908F8E" d="M321.605,78.724c-0.276,1.398-0.523,2.767-0.696,4.164h-0.048c-0.247-1.398-0.575-2.765-0.899-4.139
			l-1.221-4.858h-2.995l-1.298,5.008c-0.297,1.196-0.648,2.594-0.899,3.99h-0.046c-0.199-1.398-0.447-2.746-0.696-4.017
			l-0.974-4.987h-3.867l3.545,12.188h3.559l1.227-4.285c0.322-1.148,0.573-2.27,0.798-3.792h0.046
			c0.247,1.495,0.472,2.596,0.771,3.792l1.147,4.285h3.564l3.737-12.188h-3.716L321.605,78.724z"/>
	</g>
</g>
<g>
	<g>
		<path fill="#908F8E" d="M283.798,26.018c0.554,3.559,3.282,8.075,7.784,9.653c1.842,0.651,3.878,0.651,5.72-0.014
			c4.432-1.593,7.257-6.094,7.811-9.64c0.596-0.042,1.385-0.886,2.23-3.878c1.15-4.086-0.069-4.695-1.108-4.598
			c0.194-0.568,0.346-1.122,0.443-1.676c1.759-10.581-3.449-10.955-3.449-10.955s-0.859-1.662-3.144-2.922
			c-1.523-0.9-3.643-1.607-6.44-1.357c-0.9,0.042-1.759,0.222-2.562,0.485l0,0c-1.025,0.346-1.967,0.859-2.825,1.44
			c-1.053,0.665-2.036,1.468-2.908,2.396c-1.385,1.413-2.604,3.227-3.144,5.512c-0.443,1.704-0.346,3.476,0.028,5.374l0,0
			c0.097,0.554,0.249,1.122,0.443,1.676c-1.039-0.097-2.271,0.499-1.108,4.598C282.413,25.131,283.202,25.976,283.798,26.018z"/>
		<path fill="#908F8E" d="M294.573,39.507L294.573,39.507h-0.014h-0.014h-0.014h-0.014l0,0c-0.914,0-6.205,0.332-1.288,7.202
			l-0.208,0.596c0.471-0.125,0.956-0.194,1.454-0.194c0.554,0,1.108,0.083,1.62,0.235l-0.222-0.651
			C300.778,39.854,295.487,39.521,294.573,39.507z"/>
		<path fill="#908F8E" d="M299.074,49.424l1.593,1.593l6.316,6.316l4.515-4.515l1.8-1.8l0.734-0.734l4.764-4.764
			c-0.873-2.382-2.465-4.044-5.429-5.124c-6.205-2.368-9.917-4.792-9.917-4.792L299.074,49.424z"/>
		<path fill="#908F8E" d="M285.654,35.616c0,0-3.712,2.424-9.917,4.792c-6.828,2.479-6.413,8.102-6.551,18.642h11.052l9.75-9.75
			L285.654,35.616z"/>
		<path fill="#908F8E" d="M315.099,32.292c0.956,0.457,1.981,0.706,3.019,0.873c0.817,0.125,0.845,0.166,0.859,1.011
			c0,0.388,0,0.776,0.014,1.15c0,0.485,0.235,0.762,0.734,0.776c0.568,0.014,1.136,0.014,1.704,0
			c0.457-0.014,0.706-0.263,0.706-0.734c0-0.526,0.028-1.053,0-1.579c-0.028-0.54,0.208-0.803,0.72-0.942
			c1.177-0.319,2.188-0.956,2.978-1.911c2.147-2.618,1.33-6.454-1.731-8.144c-0.956-0.526-1.981-0.928-2.992-1.357
			c-0.582-0.235-1.15-0.526-1.634-0.914c-0.969-0.776-0.789-2.036,0.36-2.535c0.319-0.138,0.665-0.18,1.011-0.208
			c1.316-0.069,2.576,0.166,3.767,0.748c0.596,0.291,0.789,0.194,0.997-0.415c0.208-0.651,0.388-1.316,0.582-1.981
			c0.125-0.443-0.028-0.734-0.457-0.928c-0.762-0.332-1.551-0.582-2.382-0.706c-1.08-0.166-1.08-0.18-1.08-1.26
			c0-1.537,0-1.537-1.537-1.523c-0.222,0-0.443,0-0.665,0c-0.72,0.028-0.845,0.138-0.859,0.873c-0.014,0.319,0,0.651,0,0.969
			c0,0.956-0.014,0.942-0.928,1.274c-2.216,0.803-3.587,2.313-3.74,4.737c-0.125,2.147,0.983,3.587,2.742,4.64
			c1.08,0.651,2.285,1.039,3.435,1.537c0.443,0.194,0.873,0.429,1.247,0.734c1.108,0.914,0.9,2.438-0.416,3.005
			c-0.706,0.305-1.44,0.388-2.202,0.291c-1.177-0.152-2.299-0.457-3.352-1.011c-0.623-0.319-0.803-0.235-1.011,0.429
			c-0.18,0.582-0.346,1.163-0.499,1.745C314.268,31.738,314.337,31.918,315.099,32.292z"/>
		<path fill="#908F8E" d="M332.854,38.704c-0.042,0-0.083,0-0.139,0c-2.964,0.139-5.928,0.277-8.878,0.416
			c-0.457,0.028-0.914,0.042-1.163,0.596s0.042,0.859,0.346,1.177c0.914,0.914,1.8,1.828,2.728,2.728l-1.011,1.011l-8.199,8.199
			l-0.734,0.734l-1.8,1.8l-7.05,7.05L306.539,62l-8.435-8.435l-1.801-1.8l-0.485-0.485c-0.388-0.388-0.886-0.568-1.385-0.568
			c-0.499,0-0.997,0.194-1.385,0.568l-0.485,0.485L282.33,62c-0.762,0.762-0.762,1.994,0,2.77l0.485,0.485
			c0.388,0.388,0.886,0.568,1.385,0.568s0.997-0.194,1.385-0.568l8.85-8.85l0.415,0.415l8.435,8.435l1.8,1.8l0.485,0.485
			c0.388,0.388,0.886,0.568,1.385,0.568s0.997-0.194,1.385-0.568l0.485-0.485l8.435-8.435l1.8-1.8l0.734-0.734l8.199-8.199
			l0.997-0.997l2.673,2.659c0.249,0.249,0.499,0.512,0.845,0.512c0.125,0,0.277-0.042,0.443-0.125
			c0.54-0.291,0.651-0.762,0.679-1.288c0.125-2.895,0.263-5.775,0.402-8.67C334.073,39.092,333.713,38.704,332.854,38.704z"/>
	</g>
</g>
<g>
	<g transform="translate(0.000000,511.000000) scale(0.100000,-0.100000)">
		<path fill="#908F8F" d="M2988.196,4008.044c-3.82-0.956-10.746-3.702-15.527-6.093c-7.764-3.939-15.049-10.869-84.076-79.659
			c-46.696-46.455-77.988-78.58-81.572-83.598c-15.523-21.853-16.001-53.74-0.956-75.479c2.627-3.82,11.944-14.211,20.541-22.927
			l15.764-15.764l27.111,27.112l27.112,27.107l-7.044,7.404c-7.044,7.286-7.167,7.522-7.167,14.33v7.044l57.087,57.092
			c53.863,53.863,57.447,57.206,62.101,57.802c7.404,0.956,10.628-0.36,18.032-7.404l6.807-6.448l26.752,26.87l26.87,26.87
			l-18.51,18.273c-19.826,19.585-26.037,23.646-41.205,27.59C3011.601,4010.316,2997.631,4010.316,2988.196,4008.044z"/>
		<path fill="#908F8F" d="M3168.05,3999.683c-3.465-0.838-8.597-3.224-11.347-5.136c-2.746-1.912-31.173-29.739-63.057-61.864
			c-64.728-64.965-62.579-62.337-62.579-78.58c0.118-10.628,3.342-18.155,11.584-26.515c8-8.119,15.764-11.466,26.633-11.466
			c16.479,0,15.168-1.075,81.927,65.803c55.771,55.771,59.478,59.715,61.864,66.281c8.242,22.453-3.943,45.621-26.993,51.591
			C3177.845,4001.956,3176.292,4001.956,3168.05,3999.683z"/>
		<path fill="#908F8F" d="M3150.255,3837.742l-26.515-26.633l6.448-6.808c7.167-7.645,8.957-12.777,6.808-19.826
			c-1.075-3.465-13.378-16.361-57.206-60.193c-38.099-37.976-56.969-56.013-59.237-56.609c-7.404-1.79-12.777,0.118-19.826,7.167
			l-6.689,6.689l-27.23-27.23l-27.103-27.23l16.361-16.119c18.51-18.155,24.243-22.453,35.827-26.993
			c10.869-4.062,28.542-5.136,39.771-2.149c17.317,4.54,15.883,3.224,100.2,87.063c49.446,49.323,79.777,80.374,82.646,84.791
			c9.194,13.975,12.659,33.323,8.957,50.043c-3.583,16.124-7.522,22.094-27.467,42.398c-9.79,9.913-18.15,18.155-18.51,18.155
			C3177.007,3864.253,3164.826,3852.309,3150.255,3837.742z"/>
		<path fill="#908F8F" d="M2943.649,3773.488c-2.864-0.596-7.167-2.031-9.553-3.105c-2.987-1.312-25.682-23.168-64.018-61.267
			c-67-66.759-65.926-65.448-65.926-81.33c0-7.167,0.596-10.273,3.105-15.527c9.316-19.826,31.647-28.664,50.635-19.944
			c6.329,2.987,13.852,10.031,66.404,62.702c55.771,55.771,59.473,59.715,61.864,66.281c6.448,17.558,0.715,35.59-14.69,46.1
			C2963.352,3773.01,2952.724,3775.282,2943.649,3773.488z"/>
	</g>
</g>
</svg>
