<?xml version="1.0" encoding="iso-8859-1"?>
<!-- Generator: Adobe Illustrator 16.0.0, SVG Export Plug-In . SVG Version: 6.00 Build 0)  -->
<!DOCTYPE svg PUBLIC "-//W3C//DTD SVG 1.1//EN" "http://www.w3.org/Graphics/SVG/1.1/DTD/svg11.dtd">
<svg xmlns="http://www.w3.org/2000/svg" xmlns:xlink="http://www.w3.org/1999/xlink" version="1.1" id="Capa_1" x="0px" y="0px" width="512px" height="512px" viewBox="0 0 321.901 321.901" style="enable-background:new 0 0 321.901 321.901;" xml:space="preserve">
<g>
	<g>
		<path d="M302.849,168.198l18.773-8.218l-15.963-6.927l-15.947,6.977C294.379,162.319,298.771,165.051,302.849,168.198z" fill="#FFFFFF"/>
		<path d="M180.04,221.935c0.459-5.226,1.44-10.304,2.9-15.182l-60.718,26.567l-2.571,1.129l-2.396-1.461l-102.94-62.622L0,175.139    l120.058,73.042L180.04,221.935z" fill="#FFFFFF"/>
		<path d="M305.227,133.067l-15.968,6.987l-3.375,1.479l-3.386,1.479l-21.537,9.424c7.694,0.475,15.062,2.086,21.97,4.672    l15.963-6.987l3.38-1.481l3.375-1.479l15.974-6.987L305.227,133.067z" fill="#FFFFFF"/>
		<path d="M196.879,180.47l-74.662,32.669l-2.571,1.124l-2.397-1.456l-81.514-49.591l-3.019-1.836l-3.021-1.843l-14.987-9.115    L0,155.332l14.984,9.118l3.024,1.835l3.017,1.841l99.032,60.249l65.356-28.604C188.283,192.768,192.159,186.271,196.879,180.47z" fill="#FFFFFF"/>
		<path d="M304.668,112.638l-16.406,7.177l-3.375,1.474l-3.38,1.479l-15.974,6.987l-3.375,1.482l-3.38,1.479l-136.561,59.75    l-2.571,1.124l-2.397-1.456l-59.563-36.241l-3.016-1.838l-3.024-1.841L36.658,143.1l-3.017-1.835l-3.024-1.843l-15.38-9.358    L0,135.15l15.377,9.36l3.024,1.84l3.02,1.835l14.984,9.115l3.024,1.843l3.019,1.835l77.609,47.213l87.041-38.09    c10.947-9.187,24.5-15.322,39.371-17.223l29.268-12.809l3.386-1.479l3.375-1.479l15.968-6.987l3.386-1.479l3.375-1.474l16.4-7.177    L304.668,112.638z" fill="#FFFFFF"/>
		<polygon points="305.732,92.433 288.769,99.857 285.394,101.337 282.013,102.816 265.612,109.993 262.237,111.467     258.852,112.946 242.884,119.939 239.498,121.413 236.123,122.895 122.217,172.729 119.646,173.857 117.25,172.396 78.64,148.906     75.621,147.068 72.597,145.233 57.612,136.118 54.593,134.277 51.569,132.439 36.189,123.082 33.165,121.241 30.141,119.403     14.238,109.727 0,114.481 15.902,124.158 18.921,125.993 21.945,127.836 37.323,137.188 40.347,139.029 43.366,140.864     58.351,149.979 61.375,151.822 64.394,153.657 120.058,187.521 252.013,129.784 255.388,128.305 258.768,126.829 274.741,119.836     278.121,118.362 281.496,116.883 297.901,109.706 301.282,108.227 304.657,106.753 321.622,99.328   " fill="#FFFFFF"/>
		<path d="M201.562,27.509L0,94.742l14.908,9.073l3.024,1.84l3.019,1.838l15.902,9.677l3.024,1.835l3.024,1.835l15.38,9.357    l3.024,1.843l3.016,1.835l14.987,9.115l3.022,1.843l3.019,1.835l34.707,21.112l109.3-47.819l3.381-1.482l3.375-1.474l15.973-6.987    l3.381-1.479l3.375-1.474l16.405-7.177l3.38-1.479l3.375-1.474l16.971-7.425l3.385-1.479l3.375-1.477l15.895-6.953L201.562,27.509    z M56.5,113.761c-0.103-0.068-0.19-0.134-0.292-0.205c-0.965-0.651-1.872-1.295-2.731-1.933    c-5.735-4.248-9.052-8.174-9.635-11.766c-0.161-0.994-0.113-1.956,0.153-2.895c0.345-1.231,1.047-2.424,2.154-3.565    c1.197-1.236,2.829-2.418,4.952-3.546c8.714-4.628,15.248-5.709,20.875-5.065c1.822,0.206,3.554,0.583,5.218,1.107    c1.371,0.43,2.721,0.923,4.04,1.5c1.29,0.562,2.568,1.16,3.85,1.799c5.215,2.597,8.77,5.41,11.048,8.208    c0.627,0.772,1.189,1.54,1.619,2.307c0.482,0.842,0.817,1.667,1.07,2.489c1.572,4.983-0.717,9.439-5.028,11.863    c-9.487,5.353-21.379,8.817-34.618,1.361C58.298,114.913,57.401,114.362,56.5,113.761z M98.067,136.735l-10.6-6.531l57.515-23.229    l40.479-16.35l18.383-7.425l10.879-4.396l14.017,7.52l-9.007,3.766l-3.454,1.442l-3.465,1.447l-65.098,27.198l-33.805,14.123    l-11.794,4.925l-1.046-0.643L98.067,136.735z M242.304,102.827l-3.406,1.468l-16.09,6.94l-3.401,1.463l-3.401,1.469    l-90.671,39.098l-14.674-8.981l72.845-30.354l19.76-8.234l3.454-1.442l16.369-6.821l3.459-1.442l3.459-1.439l6.492-2.705    l15.293,6.89l-6.091,2.624L242.304,102.827z" fill="#FFFFFF"/>
		<path d="M290.366,212.759c-2.637,0-4.372,1.303-5.221,3.919c-0.844,2.61-1.276,6.623-1.276,12.044    c0,5.179,0.433,9.139,1.276,11.881c0.849,2.742,2.584,4.119,5.221,4.119c2.626,0,4.345-1.377,5.168-4.119    c0.822-2.742,1.233-6.702,1.233-11.881c0-5.426-0.411-9.439-1.233-12.044C294.711,214.067,292.992,212.759,290.366,212.759z" fill="#FFFFFF"/>
		<path d="M254.981,212.759c-2.626,0-4.366,1.303-5.216,3.919c-0.849,2.61-1.276,6.623-1.276,12.044    c0,5.179,0.428,9.139,1.276,11.881c0.85,2.742,2.59,4.119,5.216,4.119s4.355-1.377,5.173-4.119s1.229-6.702,1.229-11.881    c0-5.426-0.411-9.439-1.229-12.044C259.337,214.067,257.607,212.759,254.981,212.759z" fill="#FFFFFF"/>
		<path d="M296.494,176.874c-0.817-0.633-1.646-1.261-2.489-1.856c-0.876-0.612-1.772-1.202-2.679-1.772    c-4.746-3.016-9.872-5.479-15.336-7.203c-1.371-0.433-2.795-0.76-4.208-1.107c-1.503-0.364-3.032-0.675-4.577-0.938    c-3.586-0.612-7.251-1.002-11.011-1.002c-23.066,0-43.321,11.912-55.039,29.895c-0.854,1.313-1.683,2.643-2.441,4.019    c-0.681,1.224-1.276,2.494-1.878,3.76c-2.399,5.084-4.182,10.505-5.221,16.2c-0.189,1.044-0.337,2.104-0.475,3.164    c-0.137,1.028-0.273,2.057-0.358,3.096c-0.158,1.841-0.284,3.687-0.284,5.563c0,36.281,29.415,65.702,65.707,65.702    c36.281,0,65.696-29.416,65.696-65.702C321.901,207.618,311.924,188.897,296.494,176.874z M226.162,250.808h-9.076v-31.061    h-10.589v-3.502v-2.531c2.79-0.116,4.735-0.312,5.854-0.559c1.782-0.391,3.228-1.182,4.346-2.363    c0.633-0.664,1.107-1.571,1.487-2.604c0.079-0.217,0.179-0.396,0.242-0.628c0.232-0.807,0.343-1.408,0.343-1.798h4.946h2.447    v1.877V250.808z M267.047,245.903c-2.299,4.018-6.328,6.021-12.061,6.021s-9.761-2.004-12.07-6.021    c-2.305-4.019-3.46-9.746-3.46-17.182c0-7.43,1.155-13.162,3.46-17.212c2.31-4.04,6.328-6.049,12.07-6.049    c5.732,0,9.762,2.009,12.061,6.049c2.315,4.039,3.47,9.782,3.47,17.212C270.512,236.157,269.362,241.885,267.047,245.903z     M302.432,245.903c-2.31,4.018-6.328,6.021-12.065,6.021c-5.732,0-9.756-2.004-12.065-6.021c-2.311-4.019-3.46-9.746-3.46-17.182    c0-7.43,1.149-13.162,3.46-17.212c2.31-4.04,6.328-6.049,12.065-6.049s9.756,2.009,12.065,6.049    c2.31,4.039,3.47,9.782,3.47,17.212C305.891,236.157,304.736,241.885,302.432,245.903z" fill="#FFFFFF"/>
	</g>
</g>
<g>
</g>
<g>
</g>
<g>
</g>
<g>
</g>
<g>
</g>
<g>
</g>
<g>
</g>
<g>
</g>
<g>
</g>
<g>
</g>
<g>
</g>
<g>
</g>
<g>
</g>
<g>
</g>
<g>
</g>
</svg>
